# Blender v2.81 (sub 16) OBJ File: 'TableTent.blend'
# www.blender.org
mtllib TableTent.mtl
o InsideFaces_Plane
v -0.064011 0.000500 0.057608
v 0.064479 0.000500 0.057608
v -0.064245 0.000000 0.014983
v 0.064245 0.000450 0.014983
v -0.064245 0.000586 -0.027577
v 0.064245 0.001591 -0.027577
v -0.000383 0.000000 0.014983
v -0.000383 0.000375 -0.027577
v 0.000383 0.000450 0.014983
v 0.000383 0.001591 -0.027577
v -0.064011 0.000500 -0.057608
v 0.064479 0.000500 -0.057608
v -0.064011 0.167424 0.000000
v 0.064479 0.167424 0.000000
v -0.064245 0.001195 -0.014983
v 0.064245 0.000000 -0.014983
v -0.064245 0.001612 0.027577
v 0.064245 -0.000000 0.027577
v -0.000383 0.001195 -0.014983
v -0.000383 0.001612 0.027577
v 0.000383 0.000000 -0.014983
v 0.000383 -0.000370 0.027577
v -0.064011 0.000497 0.057599
v -0.064011 0.167420 -0.000009
v 0.064479 0.167420 -0.000009
v 0.064479 0.000497 0.057599
v -0.064011 0.000497 -0.057599
v 0.064479 0.000497 -0.057599
v 0.064479 0.167420 0.000009
v -0.064011 0.167420 0.000009
v 0.064479 0.000510 0.057608
v 0.064245 0.000460 0.014983
v 0.000383 0.000460 0.014983
v -0.000383 0.000010 0.014983
v -0.064245 0.000010 0.014983
v -0.064011 0.000510 0.057608
v 0.064245 0.001601 -0.027577
v 0.000383 0.001601 -0.027577
v 0.064479 0.000510 -0.057608
v -0.064011 0.000510 -0.057608
v -0.064245 0.001205 -0.014983
v -0.000383 0.001205 -0.014983
v 0.000383 0.000010 -0.014983
v 0.064245 0.000010 -0.014983
v -0.064245 0.001622 0.027577
v -0.000383 0.001622 0.027577
v -0.000383 0.000010 0.014983
v -0.000383 0.000385 -0.027578
v -0.064245 0.000596 -0.027578
v -0.064245 0.000010 0.014983
v 0.064245 0.000010 -0.014983
v 0.000383 0.000010 -0.014983
v 0.000383 -0.000360 0.027578
v 0.064245 0.000010 0.027578
vt 0.300666 0.864529
vt 0.300666 0.432695
vt 0.601332 0.432680
vt 0.601332 0.864514
vt 0.805239 0.332727
vt 0.805239 0.000000
vt 0.805261 0.000000
vt 0.805261 0.332727
vt 0.601332 0.333333
vt 0.601332 0.000605
vt 0.601354 0.000605
vt 0.601354 0.333333
vt 0.900355 0.044026
vt 0.900355 0.501296
vt 0.900332 0.501296
vt 0.900332 0.044026
vt 0.900285 0.501296
vt 0.900285 0.044026
vt 0.900308 0.044026
vt 0.900308 0.501296
vt 0.300666 0.863515
vt 0.000000 0.863639
vt 0.000000 0.439371
vt 0.300666 0.439247
vt 0.800669 0.333939
vt 0.800669 0.666666
vt 0.800647 0.666666
vt 0.800647 0.333939
vt 0.805217 0.332727
vt 0.805217 0.000000
vt 0.900285 0.044026
vt 0.900285 0.501296
vt 0.900261 0.501296
vt 0.900261 0.044026
vt 0.900308 0.501296
vt 0.900308 0.044026
vt 0.900332 0.044026
vt 0.900332 0.501296
vt 0.701075 0.667272
vt 0.800669 0.667273
vt 0.800669 0.832643
vt 0.701075 0.832643
vt 1.000000 0.666666
vt 1.000000 0.999394
vt 0.900259 1.000000
vt 0.900259 0.834629
vt 0.900255 0.832642
vt 0.900255 0.667272
vt 0.800669 1.000000
vt 0.800669 0.834629
vt 0.801944 0.167385
vt 0.801944 0.277636
vt 0.801921 0.277636
vt 0.801921 0.167385
vt 0.801804 0.332756
vt 0.801804 0.167385
vt 0.801827 0.167385
vt 0.801827 0.332756
vt 0.803451 0.110240
vt 0.804846 0.000000
vt 0.804870 0.000000
vt 0.803475 0.110240
vt 0.804893 0.110394
vt 0.805217 0.220609
vt 0.805193 0.220610
vt 0.804870 0.110394
vt 0.000000 0.000000
vt 0.300666 0.000089
vt 0.300666 0.000115
vt 0.000000 0.000026
vt 0.300666 0.000000
vt 0.601332 0.000014
vt 0.601332 0.000040
vt 0.300666 0.000026
vt 0.800670 0.332752
vt 0.801710 0.167385
vt 0.801734 0.167385
vt 0.800693 0.332753
vt 0.801781 0.332756
vt 0.801781 0.167385
vt 0.801804 0.167385
vt 0.801804 0.332756
vt 0.800670 0.165343
vt 0.803428 0.000000
vt 0.803451 0.000000
vt 0.800693 0.165343
vt 0.802038 0.167423
vt 0.802038 0.277640
vt 0.802015 0.277640
vt 0.802015 0.167423
vt 0.801898 0.277773
vt 0.801898 0.167386
vt 0.801921 0.167385
vt 0.801921 0.277772
vt 0.803428 0.167385
vt 0.803451 0.167385
vt 0.804846 0.220609
vt 0.804870 0.220608
vt 0.805217 0.000000
vt 0.805193 0.000000
vt 0.801898 0.167385
vt 0.801897 0.277772
vt 0.801874 0.277773
vt 0.801874 0.167385
vt 0.800669 0.335925
vt 0.900260 0.335924
vt 0.900260 0.501296
vt 0.800669 0.501296
vt 0.900261 0.501296
vt 0.900261 0.666666
vt 0.800669 0.666666
vt 0.800670 0.501296
vt 0.801757 0.167385
vt 0.801757 0.332756
vt 0.801734 0.332756
vt 0.801734 0.167385
vt 0.801944 0.277636
vt 0.801944 0.167423
vt 0.801968 0.167424
vt 0.801968 0.277636
vt 0.801874 0.167385
vt 0.801874 0.332759
vt 0.801851 0.332759
vt 0.801851 0.167385
vt 0.801827 0.332756
vt 0.801827 0.167385
vt 0.801851 0.167385
vt 0.801851 0.332756
vt 0.801991 0.277639
vt 0.801991 0.167423
vt 0.802015 0.167424
vt 0.802015 0.277639
vt 0.801968 0.277635
vt 0.801968 0.167423
vt 0.801991 0.167424
vt 0.801991 0.277635
vt 0.801781 0.167385
vt 0.801780 0.332757
vt 0.801757 0.332757
vt 0.801757 0.167385
vt 0.802061 0.167424
vt 0.802061 0.277635
vt 0.802038 0.277635
vt 0.802038 0.167423
vn 0.0000 -0.3262 -0.9453
vn 0.0000 0.9453 -0.3262
vn 0.0000 -0.9453 0.3263
vn 1.0000 0.0000 0.0000
vn -1.0000 0.0000 0.0000
vn 0.0000 -0.3262 0.9453
vn 0.0000 -0.9453 -0.3263
vn 0.0000 0.9453 0.3262
vn 1.0000 -0.0001 0.0000
vn -1.0000 -0.0001 0.0000
vn 0.0000 0.9996 0.0268
vn 0.0046 1.0000 -0.0023
vn 0.0000 1.0000 -0.0098
vn -1.0000 -0.0004 -0.0000
vn 0.0000 0.0268 -0.9996
vn -1.0000 0.0016 -0.0000
vn 0.0000 0.0063 1.0000
vn 0.0000 -0.0022 -1.0000
vn 0.0000 -0.0064 -1.0000
vn 0.0000 0.0099 1.0000
vn 0.0000 0.0022 1.0000
vn 1.0000 -0.0012 0.0000
vn 1.0000 -0.0044 0.0054
vn 0.0066 0.0041 1.0000
vn 1.0000 0.0005 -0.0055
vn -1.0000 0.0033 -0.0055
vn -1.0000 -0.0011 0.0055
vn 0.0016 0.9999 0.0113
vn -0.0029 1.0000 0.0043
vn 0.0000 0.0044 -1.0000
vn 1.0000 -0.0016 -0.0000
vn 0.0000 -0.0043 1.0000
vn 0.0000 0.0025 1.0000
vn -1.0000 -0.0029 -0.0000
vn 1.0000 0.0027 0.0000
vn -0.0000 -0.0024 -1.0000
usemtl Matte
s off
f 23/1/1 24/2/1 25/3/1 26/4/1
f 13/5/2 14/6/2 25/7/2 24/8/2
f 2/9/3 1/10/3 23/11/3 26/12/3
f 14/13/4 2/14/4 26/15/4 25/16/4
f 1/17/5 13/18/5 24/19/5 23/20/5
f 27/21/6 28/22/6 29/23/6 30/24/6
f 11/25/7 12/26/7 28/27/7 27/28/7
f 14/6/8 13/5/8 30/29/8 29/30/8
f 12/31/9 14/32/9 29/33/9 28/34/9
f 13/35/10 11/36/10 27/37/10 30/38/10
f 32/39/11 37/40/11 38/41/11 33/42/11
f 39/43/12 40/44/12 41/45/12 42/46/12 43/47/12 44/48/12
f 42/46/13 41/45/13 45/49/13 46/50/13
f 10/51/14 9/52/14 33/53/14 38/54/14
f 6/55/15 10/56/15 38/57/15 37/58/15
f 4/59/4 6/60/4 37/61/4 32/62/4
f 15/63/16 17/64/16 45/65/16 41/66/16
f 1/67/17 2/68/17 31/69/17 36/70/17
f 12/71/18 11/72/18 40/73/18 39/74/18
f 7/75/19 3/76/19 35/77/19 34/78/19
f 17/79/20 20/80/20 46/81/20 45/82/20
f 21/83/21 16/84/21 44/85/21 43/86/21
f 20/87/22 19/88/22 42/89/22 46/90/22
f 16/91/23 12/92/23 39/93/23 44/94/23
f 19/95/24 21/83/24 43/86/24 42/96/24
f 2/97/25 4/59/25 32/62/25 31/98/25
f 11/99/26 15/63/26 41/66/26 40/100/26
f 3/101/27 1/102/27 36/103/27 35/104/27
f 47/105/28 48/106/28 49/107/28 50/108/28
f 51/109/29 52/110/29 53/111/29 54/112/29
f 16/113/30 21/114/30 52/115/30 51/116/30
f 7/117/31 8/118/31 48/119/31 47/120/31
f 22/121/32 18/122/32 54/123/32 53/124/32
f 3/125/33 7/126/33 47/127/33 50/128/33
f 21/129/34 22/130/34 53/131/34 52/132/34
f 18/133/35 16/134/35 51/135/35 54/136/35
f 8/137/36 5/138/36 49/139/36 48/140/36
f 5/141/16 3/142/16 50/143/16 49/144/16
l 7 9
o OutsideFaces_Plane.001
v -0.064011 0.000500 0.057608
v 0.064479 0.000500 0.057608
v -0.064245 0.000000 0.014983
v 0.064245 0.000450 0.014983
v -0.064245 0.000586 -0.027577
v 0.064245 0.001591 -0.027577
v -0.000383 0.000000 0.014983
v -0.000383 0.000375 -0.027577
v 0.000383 0.000450 0.014983
v 0.000383 0.001591 -0.027577
v -0.064011 0.000500 -0.057608
v 0.064479 0.000500 -0.057608
v -0.064011 0.167424 0.000000
v 0.064479 0.167424 0.000000
v -0.064245 0.001195 -0.014983
v 0.064245 0.000000 -0.014983
v -0.064245 0.001612 0.027577
v 0.064245 -0.000000 0.027577
v -0.000383 0.001195 -0.014983
v -0.000383 0.001612 0.027577
v 0.000383 0.000000 -0.014983
v 0.000383 -0.000370 0.027577
vt 0.000000 0.000000
vt 0.300666 0.000089
vt 0.300666 0.439247
vt 0.000000 0.439158
vt 0.601332 0.333333
vt 0.601332 0.000605
vt 0.701074 0.000000
vt 0.701074 0.165371
vt 0.701075 0.167356
vt 0.701075 0.332727
vt 0.800665 0.000000
vt 0.800664 0.165371
vt 0.800670 0.167356
vt 0.800670 0.332727
vt 0.601332 0.000014
vt 0.601332 0.432681
vt 0.300666 0.432666
vt 0.300666 0.000000
vt 0.800669 0.666666
vt 0.700924 0.666061
vt 0.700924 0.500690
vt 0.700928 0.498704
vt 0.700928 0.333333
vt 0.800669 0.333939
vt 0.601338 0.498704
vt 0.601338 0.333333
vt 0.601333 0.666061
vt 0.601332 0.500690
vn 0.0000 0.3262 0.9453
vn 0.0018 -1.0000 0.0064
vn -0.0016 -0.9999 -0.0113
vn 0.0000 -0.9996 -0.0268
vn 0.0000 0.3262 -0.9453
vn -0.0046 -1.0000 0.0023
vn 0.0000 -1.0000 0.0098
vn 0.0029 -1.0000 -0.0043
usemtl Glossy
s off
f 55/145/37 56/146/37 68/147/37 67/148/37
f 56/149/38 55/150/38 57/151/38 61/152/38 63/153/38 58/154/38
f 61/152/39 57/151/39 59/155/39 62/156/39
f 58/154/40 63/153/40 64/157/40 60/158/40
f 65/159/41 67/160/41 68/161/41 66/162/41
f 66/163/42 70/164/42 75/165/42 73/166/42 69/167/42 65/168/42
f 73/166/43 74/169/43 71/170/43 69/167/43
f 70/164/44 72/171/44 76/172/44 75/165/44
