{
  "accessors": [
    {
      "bufferView": 2,
      "componentType": 5126,
      "count": 196,
      "max": [
        0.2996940016746521,
        0.15772199630737305,
        0.13206498324871063
      ],
      "min": [
        -0.22038419544696808,
        -0.27245569229125977,
        -0.13206599652767181
      ],
      "type": "VEC3"
    },
    {
      "bufferView": 2,
      "byteOffset": 2352,
      "componentType": 5126,
      "count": 196,
      "max": [
        1,
        1,
        1
      ],
      "min": [
        -1,
        -1,
        -1
      ],
      "type": "VEC3"
    },
    {
      "bufferView": 3,
      "componentType": 5126,
      "count": 196,
      "max": [
        1,
        1,
        0.0017884254921227694,
        1
      ],
      "min": [
        -0.99997574090957642,
        -1,
        -0.018006786704063416,
        1
      ],
      "type": "VEC4"
    },
    {
      "bufferView": 1,
      "componentType": 5126,
      "count": 196,
      "max": [
        0.98730999231338501,
        0.99000000953674316
      ],
      "min": [
        -0,
        0.15658000111579895
      ],
      "type": "VEC2"
    },
    {
      "bufferView": 0,
      "componentType": 5125,
      "count": 648,
      "max": [
        195
      ],
      "min": [
        0
      ],
      "type": "SCALAR"
    }
  ],
  "asset": {
    "extras": {
      "author": "macriciox (https://sketchfab.com/macriciox)",
      "license": "CC-BY-4.0 (http://creativecommons.org/licenses/by/4.0/)",
      "source": "https://sketchfab.com/models/76fa80950b1f48a8ad6a8441fe443241",
      "title": "Cardboard box"
    },
    "generator": "Sketchfab-3.47.8",
    "version": "2.0"
  },
  "bufferViews": [
    {
      "buffer": 0,
      "byteLength": 2592,
      "byteOffset": 0,
      "name": "floatBufferViews",
      "target": 34963
    },
    {
      "buffer": 0,
      "byteLength": 1568,
      "byteOffset": 2592,
      "byteStride": 8,
      "name": "floatBufferViews",
      "target": 34962
    },
    {
      "buffer": 0,
      "byteLength": 4704,
      "byteOffset": 4160,
      "byteStride": 12,
      "name": "floatBufferViews",
      "target": 34962
    },
    {
      "buffer": 0,
      "byteLength": 3136,
      "byteOffset": 8864,
      "byteStride": 16,
      "name": "floatBufferViews",
      "target": 34962
    }
  ],
  "buffers": [
    {
      "byteLength": 12000,
      "uri": "scene.bin"
    }
  ],
  "images": [
    {
      "uri": "textures/defaultMat_baseColor.png"
    },
    {
      "uri": "textures/defaultMat_metallicRoughness.png"
    },
    {
      "uri": "textures/defaultMat_normal.png"
    }
  ],
  "materials": [
    {
      "doubleSided": true,
      "name": "defaultMat",
      "normalTexture": {
        "index": 2,
        "scale": 1,
        "texCoord": 0
      },
      "pbrMetallicRoughness": {
        "baseColorFactor": [
          1,
          1,
          1,
          1
        ],
        "baseColorTexture": {
          "index": 0,
          "texCoord": 0
        },
        "metallicFactor": 0.30659298779999999,
        "metallicRoughnessTexture": {
          "index": 1,
          "texCoord": 0
        },
        "roughnessFactor": 0.41634908539999999
      }
    }
  ],
  "meshes": [
    {
      "primitives": [
        {
          "attributes": {
            "NORMAL": 1,
            "POSITION": 0,
            "TANGENT": 2,
            "TEXCOORD_0": 3
          },
          "indices": 4,
          "material": 0,
          "mode": 4
        }
      ]
    }
  ],
  "nodes": [
    {
      "children": [
        1
      ],
      "name": "RootNode (gltf orientation matrix)",
      "rotation": [
        -0.70710678118654746,
        -0,
        -0,
        0.70710678118654757
      ]
    },
    {
      "children": [
        2
      ],
      "matrix": [
        1,
        0,
        0,
        0,
        0,
        0,
        -1,
        0,
        0,
        1,
        0,
        0,
        0,
        -0.057366751134395599,
        -0.057368196547031403,
        1
      ],
      "name": "RootNode (model correction matrix)"
    },
    {
      "children": [
        3
      ],
      "name": "Box.OBJ.cleaner.materialmerger.gles"
    },
    {
      "mesh": 0,
      "name": ""
    }
  ],
  "samplers": [
    {
      "magFilter": 9729,
      "minFilter": 9987,
      "wrapS": 10497,
      "wrapT": 10497
    }
  ],
  "scene": 0,
  "scenes": [
    {
      "name": "OSG_Scene",
      "nodes": [
        0
      ]
    }
  ],
  "textures": [
    {
      "sampler": 0,
      "source": 0
    },
    {
      "sampler": 0,
      "source": 1
    },
    {
      "sampler": 0,
      "source": 2
    }
  ]
}

