{"asset":{"version":"2.0","generator":"babylon.js glTF exporter for 3dsmax 2019 v20200415.4"},"scene":0,"scenes":[{"nodes":[0,1]}],"nodes":[{"mesh":0,"translation":[-0.00738377869,0.01871218,-5.71496421E-05],"name":"caneca"},{"name":"Default light"}],"meshes":[{"primitives":[{"attributes":{"POSITION":1,"NORMAL":2,"TEXCOORD_0":3},"indices":0,"material":0},{"attributes":{"POSITION":5,"NORMAL":6,"TEXCOORD_0":7},"indices":4,"material":1},{"attributes":{"POSITION":9,"NORMAL":10,"TEXCOORD_0":11},"indices":8,"material":2},{"attributes":{"POSITION":13,"NORMAL":14,"TEXCOORD_0":15},"indices":12,"material":3},{"attributes":{"POSITION":17,"NORMAL":18,"TEXCOORD_0":19},"indices":16,"material":4}],"name":"caneca"}],"accessors":[{"bufferView":0,"componentType":5123,"count":8664,"type":"SCALAR","name":"accessorIndices"},{"bufferView":1,"componentType":5126,"count":8664,"max":[0.02340864,0.0178333391,0.0159702487],"min":[-0.008950962,-0.0182880014,-0.0159702487],"type":"VEC3","name":"accessorPositions"},{"bufferView":1,"byteOffset":103968,"componentType":5126,"count":8664,"type":"VEC3","name":"accessorNormals"},{"bufferView":2,"componentType":5126,"count":8664,"type":"VEC2","name":"accessorUVs"},{"bufferView":0,"byteOffset":17328,"componentType":5123,"count":10500,"type":"SCALAR","name":"accessorIndices"},{"bufferView":1,"byteOffset":207936,"componentType":5126,"count":10500,"max":[0.0233121179,0.0186664611,0.0158737283],"min":[-0.0084328,-0.0162839387,-0.01587373],"type":"VEC3","name":"accessorPositions"},{"bufferView":1,"byteOffset":333936,"componentType":5126,"count":10500,"type":"VEC3","name":"accessorNormals"},{"bufferView":2,"byteOffset":69312,"componentType":5126,"count":10500,"type":"VEC2","name":"accessorUVs"},{"bufferView":0,"byteOffset":38328,"componentType":5123,"count":4590,"type":"SCALAR","name":"accessorIndices"},{"bufferView":1,"byteOffset":459936,"componentType":5126,"count":4590,"max":[0.0231521,-0.01808734,0.0157111678],"min":[-0.00827024,-0.01866646,-0.0157111716],"type":"VEC3","name":"accessorPositions"},{"bufferView":1,"byteOffset":515016,"componentType":5126,"count":4590,"type":"VEC3","name":"accessorNormals"},{"bufferView":2,"byteOffset":153312,"componentType":5126,"count":4590,"type":"VEC2","name":"accessorUVs"},{"bufferView":0,"byteOffset":47508,"componentType":5123,"count":1476,"type":"SCALAR","name":"accessorIndices"},{"bufferView":1,"byteOffset":570096,"componentType":5126,"count":1476,"max":[0.0214883983,-0.0162839387,0.0140474709],"min":[-0.00660908036,-0.01664716,-0.0140474709],"type":"VEC3","name":"accessorPositions"},{"bufferView":1,"byteOffset":587808,"componentType":5126,"count":1476,"type":"VEC3","name":"accessorNormals"},{"bufferView":2,"byteOffset":190032,"componentType":5126,"count":1476,"type":"VEC2","name":"accessorUVs"},{"bufferView":0,"byteOffset":50460,"componentType":5123,"count":9708,"type":"SCALAR","name":"accessorIndices"},{"bufferView":1,"byteOffset":605520,"componentType":5126,"count":9708,"max":[-0.008801101,0.0127330208,0.00227964949],"min":[-0.02340356,-0.01418082,-0.00227965042],"type":"VEC3","name":"accessorPositions"},{"bufferView":1,"byteOffset":722016,"componentType":5126,"count":9708,"type":"VEC3","name":"accessorNormals"},{"bufferView":2,"byteOffset":201840,"componentType":5126,"count":9708,"type":"VEC2","name":"accessorUVs"}],"bufferViews":[{"buffer":0,"byteLength":69876,"name":"bufferViewScalar"},{"buffer":0,"byteOffset":69876,"byteLength":838512,"byteStride":12,"name":"bufferViewFloatVec3"},{"buffer":0,"byteOffset":908388,"byteLength":279504,"byteStride":8,"name":"bufferViewFloatVec2"}],"buffers":[{"uri":"caneca.bin","byteLength":1187892}],"materials":[{"pbrMetallicRoughness":{"baseColorFactor":[0.5686275,0.5019608,0.9686275,1.0],"metallicFactor":0.01,"roughnessFactor":0.0},"name":"Material #36"},{"pbrMetallicRoughness":{"baseColorFactor":[0.815686345,0.5019608,0.7294118,1.0],"metallicFactor":0.0,"roughnessFactor":0.0},"name":"Material #37"},{"pbrMetallicRoughness":{"baseColorFactor":[1.0,0.5019608,0.5019608,1.0],"metallicFactor":0.0,"roughnessFactor":0.0},"name":"Material #38"},{"pbrMetallicRoughness":{"baseColorFactor":[0.8470589,0.8705883,0.5019608,1.0],"metallicFactor":0.0,"roughnessFactor":0.0},"name":"Material #39"},{"pbrMetallicRoughness":{"baseColorFactor":[0.5019608,0.7686275,0.58431375,1.0],"metallicFactor":0.0,"roughnessFactor":0.0},"name":"Material #40"}]}